<svg xmlns="http://www.w3.org/2000/svg" viewBox="0 0 54.68 54.68"><defs><style>.cls-1{fill:#fff;}</style></defs><title>download</title><g id="Laag_2" data-name="Laag 2"><g id="Laag_1-2" data-name="Laag 1"><path class="cls-1" d="M27.34,40.15a1.5,1.5,0,0,1-1.5-1.5V12.42a1.5,1.5,0,1,1,3,0V38.65A1.5,1.5,0,0,1,27.34,40.15Z"/><path class="cls-1" d="M27.34,40.15a1.5,1.5,0,0,1-1.16-2.45l9.34-11.48a1.5,1.5,0,1,1,2.32,1.9L28.5,39.59A1.46,1.46,0,0,1,27.34,40.15Z"/><path class="cls-1" d="M27.34,40.15a1.48,1.48,0,0,1-1.16-.56L16.84,28.12a1.5,1.5,0,0,1,2.32-1.9L28.5,37.7a1.5,1.5,0,0,1-1.16,2.45Z"/><path class="cls-1" d="M27.34,54.68A27.34,27.34,0,1,1,54.68,27.34,27.36,27.36,0,0,1,27.34,54.68ZM27.34,3A24.34,24.34,0,1,0,51.68,27.34,24.37,24.37,0,0,0,27.34,3Z"/></g></g></svg>