<svg xmlns="http://www.w3.org/2000/svg" viewBox="0 0 111.87 111.87"><defs><style>.cls-1{fill:#fff;}</style></defs><title>pause</title><g id="Laag_2" data-name="Laag 2"><g id="Laag_1-2" data-name="Laag 1"><path class="cls-1" d="M55.94,0a55.94,55.94,0,1,0,55.93,55.94A55.93,55.93,0,0,0,55.94,0ZM48.87,74.69a1.75,1.75,0,0,1-1.75,1.75h-6.6a1.75,1.75,0,0,1-1.75-1.75V37.92a1.75,1.75,0,0,1,1.75-1.75h6.6a1.75,1.75,0,0,1,1.75,1.75Zm24.23,0a1.75,1.75,0,0,1-1.75,1.75h-6.6A1.75,1.75,0,0,1,63,74.69V37.92a1.75,1.75,0,0,1,1.75-1.75h6.6a1.75,1.75,0,0,1,1.75,1.75Z"/></g></g></svg>