<?xml version="1.0" encoding="utf-8"?>
<!-- Generator: Adobe Illustrator 23.0.6, SVG Export Plug-In . SVG Version: 6.00 Build 0)  -->
<svg version="1.1" id="Laag_1" xmlns="http://www.w3.org/2000/svg" xmlns:xlink="http://www.w3.org/1999/xlink" x="0px" y="0px"
	 viewBox="0 0 16 16" style="enable-background:new 0 0 16 16;" xml:space="preserve">
<style type="text/css">
	.st0{fill:#1ED760;}
</style>
<path class="st0" d="M4.5,6.8L5.2,6C4.1,4.7,2.5,4,0.9,4v1c1.3,0,2.6,0.6,3.5,1.6C4.4,6.6,4.5,6.8,4.5,6.8z M12,11.5
	c-1.2,0-2.3-0.5-3.2-1.3L8.2,11c1,1,2.4,1.5,3.8,1.5V14l3.5-2L12,10V11.5z M12,5.5V7l3.5-2L12,3v1.5c-1.6,0-3.2,0.7-4.2,2l-3.4,3.9
	c-0.9,1-2.2,1.6-3.5,1.6v1c1.6,0,3.2-0.7,4.2-2l3.4-3.9C9.4,6.1,10.7,5.5,12,5.5z"/>
</svg>
