<svg xmlns="http://www.w3.org/2000/svg" viewBox="0 0 107.59 81.06"><defs><style>.cls-1{fill:#65d16e;}</style></defs><title>Middel 9</title><g id="Laag_2" data-name="Laag 2"><g id="Laag_1-2" data-name="Laag 1"><path class="cls-1" d="M26.82,32.29l9.11-11C27.82,11.7,11.79,2.37,0,2.37V18.74c9.58,0,19.9,5.89,26.53,13.26Zm55,26.35c-8.84,0-18.11-4.16-24.75-10L47.24,59.35C54.61,66.72,71.48,74,81.8,74v7l25.79-14.74L81.8,51.58Zm0-37.22v8.06l25.79-14.74L81.8,0V7.05C70,7.05,55.22,12.21,47.85,21.79L22.79,50.53C16.16,57.9,9.58,62.32,0,62.32V76.69c11.79,0,25-5.08,32.37-14.66L57.25,34C63.88,26.63,72.22,21.42,81.8,21.42Z"/></g></g></svg>