<svg xmlns="http://www.w3.org/2000/svg" viewBox="0 0 170.05 170.05"><defs><style>.cls-1{fill:#1ed760;}</style></defs><title>green</title><g id="Laag_2" data-name="Laag 2"><g id="Layer_1" data-name="Layer 1"><path class="cls-1" d="M85,0a85,85,0,1,0,85,85A85,85,0,0,0,85,0Zm39,122.64a5.3,5.3,0,0,1-7.29,1.76c-20-12.2-45.09-15-74.69-8.2a5.3,5.3,0,1,1-2.36-10.33c32.39-7.4,60.17-4.22,82.58,9.48A5.3,5.3,0,0,1,124,122.64Zm10.4-23.16a6.64,6.64,0,0,1-9.12,2.19c-22.84-14-57.69-18.12-84.72-9.91a6.63,6.63,0,1,1-3.85-12.69c30.88-9.37,69.27-4.83,95.51,11.3A6.62,6.62,0,0,1,134.42,99.48Zm.9-24.1C107.91,59.1,62.71,57.6,36.54,65.54a7.95,7.95,0,1,1-4.62-15.21c30-9.12,80-7.36,111.52,11.37a8,8,0,1,1-8.12,13.68Z"/></g></g></svg>