<?xml version="1.0" encoding="utf-8"?>
<!-- Generator: Adobe Illustrator 23.0.6, SVG Export Plug-In . SVG Version: 6.00 Build 0)  -->
<svg version="1.1" id="Laag_1" xmlns="http://www.w3.org/2000/svg" xmlns:xlink="http://www.w3.org/1999/xlink" x="0px" y="0px"
	 viewBox="0 0 170.1 170.1" style="enable-background:new 0 0 170.1 170.1;" xml:space="preserve">
<style type="text/css">
	.st0{fill:#191414;}
	.st1{fill:#131313;}
</style>
<title>black</title>
<g>
	<g id="Layer_1">
		<path class="st0" d="M85,0C38.1,0,0,38.1,0,85s38.1,85,85,85s85-38.1,85-85S131.9,0,85,0z M124,122.6c-1.5,2.5-4.8,3.3-7.3,1.8
			c0,0,0,0,0,0c-20-12.2-45.1-15-74.7-8.2c-2.8,0.7-5.7-1-6.5-3.8s1-5.7,3.8-6.5c0.1,0,0.2,0,0.3-0.1c32.4-7.4,60.2-4.2,82.6,9.5
			C124.7,116.9,125.5,120.1,124,122.6C124,122.6,124,122.6,124,122.6z M134.4,99.5c-1.9,3.1-6,4.1-9.1,2.2
			c-22.8-14-57.7-18.1-84.7-9.9c-3.5,1.1-7.2-0.9-8.3-4.4c-1.1-3.5,0.9-7.2,4.4-8.3c30.9-9.4,69.3-4.8,95.5,11.3
			C135.3,92.3,136.3,96.3,134.4,99.5C134.4,99.5,134.4,99.5,134.4,99.5L134.4,99.5z M135.3,75.4c-27.4-16.3-72.6-17.8-98.8-9.8
			c-4.2,1.4-8.7-0.9-10-5.1s0.9-8.7,5.1-10c0.1,0,0.2-0.1,0.3-0.1c30-9.1,80-7.4,111.5,11.4c4,1.8,5.8,6.6,4,10.6
			c-1.8,4-6.6,5.8-10.6,4C136.3,76,135.8,75.7,135.3,75.4L135.3,75.4z"/>
	</g>
</g>
<polygon class="st1" points="0.9,215.6 -0.1,216.6 -0.1,217.8 0.9,218.8 124.9,218.8 125.9,217.8 125.9,216.6 124.9,215.6 "/>
<path class="st1" d="M140,224H0.7c-0.5,0-0.9-0.4-0.9-0.9l0,0c0-0.5,0.4-0.9,0.9-0.9H140c0.5,0,0.9,0.4,0.9,0.9l0,0
	C140.9,223.7,140.5,224,140,224z"/>
</svg>
